<svg viewBox="20 20 237.21933 140.30299" xmlns='http://www.w3.org/2000/svg'>
<path d="m 189.20991,110.151 75.737,-93.534 c 2.473,-3.056 2.972,-7.261 1.278,-10.809 -1.692,-3.549 -5.274,-5.808 -9.205,-5.808 h -84.952 c -3.078,0 -5.99,1.389 -7.926,3.781 l -30.532,37.706 -30.532,-37.706 C 101.14191,1.389 98.22891,0 95.15191,0 h -84.952 C 6.2689098,0 2.6869098,2.259 0.99390982,5.808 c -1.693,3.548 -1.194,7.754 1.27899998,10.809 L 78.00991,110.151 2.2729098,203.685 c -2.47399998,3.056 -2.97199998,7.261 -1.27899998,10.809 1.69299998,3.548 5.27399998,5.808 9.20600018,5.808 h 84.952 c 3.077,0 5.99,-1.389 7.926,-3.781 l 30.532,-37.705 30.531,37.706 c 1.936,2.392 4.849,3.781 7.926,3.781 h 84.953 c 3.931,0 7.513,-2.259 9.205,-5.808 1.693,-3.548 1.195,-7.754 -1.279,-10.809 z m -12.277,-89.753 h 58.706 l -59.553,73.545 -29.352,-36.25 z m -86.646,179.506 h -58.706 l 59.552,-73.545 29.352,36.25 z m 86.646,0 -145.352,-179.506 h 58.706 l 145.351,179.506 z"/>
</svg>
